<?xml version="1.0" encoding="UTF-8" standalone="no"?>
<!-- Created with Inkscape (http://www.inkscape.org/) -->

<svg
   width="10.085657mm"
   height="15.442356mm"
   viewBox="0 0 10.085657 15.442356"
   version="1.1"
   id="svg1"
   inkscape:version="1.4.2 (ebf0e94, 2025-05-08)"
   sodipodi:docname="drawing.svg"
   inkscape:export-batch-path="/home/btadele020/check presenter files/storeka"
   inkscape:export-batch-name=""
   xmlns:inkscape="http://www.inkscape.org/namespaces/inkscape"
   xmlns:sodipodi="http://sodipodi.sourceforge.net/DTD/sodipodi-0.dtd"
   xmlns="http://www.w3.org/2000/svg"
   xmlns:svg="http://www.w3.org/2000/svg">
  <sodipodi:namedview
     id="namedview1"
     pagecolor="#ffffff"
     bordercolor="#000000"
     borderopacity="0.25"
     inkscape:showpageshadow="2"
     inkscape:pageopacity="0.0"
     inkscape:pagecheckerboard="0"
     inkscape:deskcolor="#d1d1d1"
     inkscape:document-units="mm"
     inkscape:zoom="0.44877907"
     inkscape:cx="-281.87589"
     inkscape:cy="684.07825"
     inkscape:window-width="1138"
     inkscape:window-height="602"
     inkscape:window-x="0"
     inkscape:window-y="0"
     inkscape:window-maximized="1"
     inkscape:current-layer="g11"
     showguides="true"
     showgrid="false">
    <inkscape:page
       x="0"
       y="0"
       width="10.085657"
       height="15.442356"
       id="page2"
       margin="0"
       bleed="0" />
  </sodipodi:namedview>
  <defs
     id="defs1" />
  <g
     inkscape:label="Layer 1"
     inkscape:groupmode="layer"
     id="layer1"
     transform="translate(-116.14534,-194.06818)">
    <g
       id="g13">
      <g
         id="g65"
         transform="matrix(0.7979672,0,0,0.7979672,-1.268908,87.333253)"
         inkscape:export-filename="color.png"
         inkscape:export-xdpi="1000"
         inkscape:export-ydpi="1000">
        <path
           d="m 153.55412,133.77012 c -0.44763,0.0205 -0.88344,0.0684 -1.30716,0.14358 -0.84743,0.15035 -1.6061,0.40994 -2.27586,0.77899 -0.88844,0.4784 -1.57172,1.11407 -2.05011,1.90684 -0.5194,0.87477 -0.77929,1.87263 -0.77929,2.99344 0,1.53085 0.64248,2.80871 1.9273,3.83384 0.51941,0.41005 1.09358,0.77224 1.72232,1.08661 0.45962,0.21981 0.923,0.43588 1.38991,0.64839 l 1.28006,-1.72722 c -0.63882,-0.27494 -1.21444,-0.5371 -1.72693,-0.78678 -0.53307,-0.27336 -0.98395,-0.55364 -1.353,-0.84068 -0.36905,-0.30071 -0.65614,-0.6218 -0.86116,-0.96351 -0.19136,-0.35538 -0.28715,-0.77226 -0.28715,-1.25065 0,-1.40785 0.58097,-2.4264 1.74279,-3.05514 0.53306,-0.28704 1.13444,-0.47834 1.80419,-0.57401 0.68342,-0.10935 1.36699,-0.13655 2.05041,-0.0819 0.68341,0.0547 1.3324,0.18447 1.94748,0.3895 0.57893,0.17619 1.08271,0.3928 1.51099,0.65012 l 1.257,-1.6958 c -0.61508,-0.39638 -1.32585,-0.71747 -2.13228,-0.9635 -0.79277,-0.24603 -1.61974,-0.40332 -2.48085,-0.47167 -0.47155,-0.0342 -0.93102,-0.041 -1.37866,-0.0205 z"
           style="font-size:75.2632px;line-height:1.1;font-family:Kiros;-inkscape-font-specification:'Kiros, Normal';letter-spacing:-3.90632px;fill:#ff6600;stroke-width:2.15805"
           id="path64" />
        <path
           d="m 153.36846,153.09906 c 0.44763,-0.0205 0.88344,-0.0684 1.30716,-0.14358 0.84744,-0.15035 1.60612,-0.40994 2.27587,-0.77899 0.88844,-0.4784 1.57172,-1.11407 2.05012,-1.90684 0.5194,-0.87477 0.77928,-1.87263 0.77928,-2.99344 0,-1.53085 -0.64248,-2.80871 -1.9273,-3.83384 -0.5194,-0.41005 -1.09358,-0.77224 -1.72232,-1.08661 -0.45961,-0.21981 -0.923,-0.43588 -1.38992,-0.64839 l -1.28006,1.72722 c 0.63882,0.27494 1.21444,0.5371 1.72694,0.78678 0.53307,0.27336 0.98396,0.55364 1.35301,0.84068 0.36904,0.30071 0.65613,0.6218 0.86116,0.96351 0.19136,0.35538 0.28715,0.77226 0.28715,1.25065 0,1.40785 -0.58098,2.4264 -1.7428,3.05514 -0.53306,0.28704 -1.13445,0.47834 -1.8042,0.57401 -0.68342,0.10935 -1.36699,0.13655 -2.05041,0.0819 -0.68341,-0.0547 -1.3324,-0.18447 -1.94748,-0.3895 -0.57893,-0.17619 -1.08271,-0.3928 -1.51099,-0.65012 l -1.257,1.6958 c 0.61508,0.39638 1.32585,0.71747 2.13228,0.9635 0.79277,0.24603 1.61974,0.40332 2.48084,0.47167 0.47156,0.0342 0.93103,0.041 1.37867,0.0205 z"
           style="font-size:75.2632px;line-height:1.1;font-family:Kiros;-inkscape-font-specification:'Kiros, Normal';letter-spacing:-3.90632px;fill:#ff6600;stroke-width:2.15805"
           id="path65" />
      </g>
    </g>
  </g>
</svg>
