<?xml version="1.0" encoding="UTF-8" standalone="no"?>
<!-- Created with Inkscape (http://www.inkscape.org/) -->

<svg
   width="53.466297mm"
   height="12.301705mm"
   viewBox="0 0 53.466297 12.301705"
   version="1.1"
   id="svg1"
   inkscape:version="1.4.2 (ebf0e94, 2025-05-08)"
   sodipodi:docname="drawing.svg"
   inkscape:export-batch-path="/home/btadele020/check presenter files/storeka"
   inkscape:export-batch-name=""
   xmlns:inkscape="http://www.inkscape.org/namespaces/inkscape"
   xmlns:sodipodi="http://sodipodi.sourceforge.net/DTD/sodipodi-0.dtd"
   xmlns="http://www.w3.org/2000/svg"
   xmlns:svg="http://www.w3.org/2000/svg">
  <sodipodi:namedview
     id="namedview1"
     pagecolor="#ffffff"
     bordercolor="#000000"
     borderopacity="0.25"
     inkscape:showpageshadow="2"
     inkscape:pageopacity="0.0"
     inkscape:pagecheckerboard="0"
     inkscape:deskcolor="#d1d1d1"
     inkscape:document-units="mm"
     inkscape:zoom="0.44877907"
     inkscape:cx="-281.87589"
     inkscape:cy="684.07825"
     inkscape:window-width="1138"
     inkscape:window-height="602"
     inkscape:window-x="0"
     inkscape:window-y="0"
     inkscape:window-maximized="1"
     inkscape:current-layer="g11"
     showguides="true"
     showgrid="false">
    <inkscape:page
       x="0"
       y="-1.6465282e-12"
       width="53.466297"
       height="12.301704"
       id="page2"
       margin="0"
       bleed="0" />
  </sodipodi:namedview>
  <defs
     id="defs1" />
  <g
     inkscape:label="Layer 1"
     inkscape:groupmode="layer"
     id="layer1"
     transform="translate(92.367769,-198.53943)">
    <g
       id="g11"
       inkscape:export-filename="logo.svg"
       inkscape:export-xdpi="1000"
       inkscape:export-ydpi="1000"
       transform="translate(-117.62199,85.536938)"
       style="fill:#f9f9f9">
      <path
         id="path5"
         style="font-size:30.5864px;line-height:1.1;font-family:Kiros;-inkscape-font-specification:'Kiros, Normal';letter-spacing:-1.5875px;fill:#1a1a1a;stroke-width:0.845755"
         d="m 58.687826,116.25647 c -0.626737,0 -1.202583,0.11538 -1.727543,0.34572 -0.503529,0.22498 -0.945172,0.54354 -1.3255,0.95601 -0.369615,0.40175 -0.651035,0.87044 -0.843877,1.40611 -0.187486,0.53032 -0.281119,1.09846 -0.281119,1.70378 0,0.59459 0.104245,1.15983 0.313159,1.6955 0.214268,0.53031 0.522222,1.00139 0.923974,1.41387 0.412469,0.41782 0.886463,0.73929 1.422136,0.96428 0.541029,0.21963 1.116878,0.3297 1.727543,0.3297 0.230341,0 0.479405,-0.0241 0.747241,-0.0724 0.273192,-0.0482 0.541091,-0.11823 0.803569,-0.20929 0.267837,-0.0911 0.52512,-0.20593 0.771529,-0.3452 0.246409,-0.13927 0.460727,-0.30001 0.642855,-0.48214 l -0.586528,-0.57878 c -0.133919,0.13392 -0.299964,0.2546 -0.498161,0.36174 -0.192841,0.10712 -0.398939,0.19837 -0.618567,0.27337 -0.214268,0.075 -0.433891,0.13386 -0.658874,0.17673 -0.219627,0.0375 -0.420936,0.0563 -0.603064,0.0563 -0.508887,0 -0.979971,-0.0889 -1.413867,-0.26562 -0.428538,-0.18213 -0.803595,-0.43119 -1.124996,-0.74724 -0.316046,-0.32141 -0.56511,-0.69646 -0.747241,-1.125 -0.18215,-0.43389 -0.275787,-0.90258 -0.28112,-1.40611 h 6.949963 v -0.41755 c 0,-0.5571 -0.08833,-1.08228 -0.2651,-1.5751 -0.171415,-0.49282 -0.420481,-0.92384 -0.747241,-1.29346 -0.332119,-0.38032 -0.720181,-0.66944 -1.164787,-0.86764 -0.439251,-0.1982 -0.91085,-0.29766 -1.414384,-0.29766 z m 0,0.81959 c 0.369615,0 0.712315,0.07 1.028361,0.20929 0.321402,0.13391 0.602822,0.32649 0.843876,0.57826 0.241052,0.24641 0.436537,0.54135 0.586528,0.88418 0.149988,0.34283 0.246535,0.72028 0.289388,1.13275 h -6.042525 c 0.075,-0.41783 0.206288,-0.79819 0.393774,-1.14102 0.192842,-0.34818 0.431297,-0.64552 0.715202,-0.89193 0.289264,-0.24641 0.618439,-0.43659 0.988053,-0.57051 0.369615,-0.13392 0.768806,-0.20102 1.197343,-0.20102 z" />
      <path
         id="path6"
         style="font-size:30.5864px;line-height:1.1;font-family:Kiros;-inkscape-font-specification:'Kiros, Normal';letter-spacing:-1.5875px;fill:#1a1a1a;stroke-width:0.845755"
         d="m 43.092064,116.25647 c -0.589239,0 -1.151564,0.11247 -1.687236,0.33745 -0.535672,0.21962 -1.012578,0.53871 -1.430403,0.95653 -0.417825,0.41782 -0.736389,0.89421 -0.956014,1.42988 -0.219626,0.53032 -0.329696,1.09316 -0.329696,1.68776 0,0.58924 0.11007,1.15157 0.329696,1.68723 0.219625,0.53032 0.538189,1.00431 0.956014,1.42214 0.417825,0.41782 0.894731,0.73929 1.430403,0.96428 0.535672,0.21963 1.097997,0.32918 1.687236,0.32918 0.594597,0 1.15692,-0.10955 1.687236,-0.32918 0.535672,-0.22499 1.012579,-0.54646 1.430403,-0.96428 0.417825,-0.41783 0.736389,-0.89182 0.956014,-1.42214 0.224983,-0.53566 0.337447,-1.09799 0.337447,-1.68723 0,-0.5946 -0.112464,-1.15744 -0.337447,-1.68776 -0.219625,-0.53567 -0.538189,-1.01206 -0.956014,-1.42988 -0.417824,-0.41782 -0.894731,-0.73691 -1.430403,-0.95653 -0.530316,-0.22498 -1.092639,-0.33745 -1.687236,-0.33745 z m 0,0.81959 c 0.492819,0 0.956201,0.0941 1.390096,0.28163 0.439251,0.18749 0.819612,0.44426 1.141016,0.77102 0.32676,0.32676 0.583527,0.70712 0.771012,1.14101 0.187485,0.4339 0.281637,0.90019 0.281637,1.39837 0,0.49281 -0.09415,0.95859 -0.281637,1.39784 -0.187485,0.4339 -0.444252,0.81426 -0.771012,1.14102 -0.321404,0.32141 -0.701765,0.57577 -1.141016,0.76326 -0.433895,0.18749 -0.897277,0.28164 -1.390096,0.28164 -0.492818,0 -0.959112,-0.0941 -1.398364,-0.28164 -0.433895,-0.18749 -0.814256,-0.44185 -1.141016,-0.76326 -0.321403,-0.32676 -0.575775,-0.70712 -0.763261,-1.14102 -0.187485,-0.43925 -0.28112,-0.90503 -0.28112,-1.39784 0,-0.49818 0.09363,-0.96447 0.28112,-1.39837 0.187486,-0.43389 0.441858,-0.81425 0.763261,-1.14101 0.32676,-0.32676 0.707121,-0.58353 1.141016,-0.77102 0.439252,-0.18748 0.905546,-0.28163 1.398364,-0.28163 z" />
      <path
         style="font-size:30.5864px;line-height:1.1;font-family:Kiros;-inkscape-font-specification:'Kiros, Normal';letter-spacing:-1.5875px;fill:#1a1a1a;stroke-width:0.845755"
         d="m 70.555489,125.0551 h -1.020454 l -3.286351,-4.45144 -1.751649,1.87217 v 2.57927 h -0.827613 v -12.05263 h 0.827613 v 8.2681 l 4.563931,-4.88534 h 1.124914 l -3.366703,3.59973 z"
         id="path7" />
      <path
         style="font-size:30.5864px;line-height:1.1;font-family:Kiros;-inkscape-font-specification:'Kiros, Normal';letter-spacing:-1.5875px;fill:#1a1a1a;stroke-width:0.845755"
         d="m 50.452055,116.85931 q 0.618704,-0.49015 1.317754,-0.67495 0.707088,-0.19284 1.349894,-0.0482 l -0.184807,0.80351 q -0.457999,-0.10446 -0.988313,0.0482 -0.52228,0.15267 -0.980282,0.51425 -0.176772,0.14463 -0.39372,0.37765 -0.216947,0.22498 -0.409789,0.56245 -0.192842,0.33747 -0.321404,0.78744 -0.128561,0.44193 -0.128561,1.01242 v 4.80498 h -0.819579 v -8.66182 h 0.819579 v 1.24544 q 0.321404,-0.42586 0.739228,-0.77137 z"
         id="path8" />
      <path
         style="font-size:30.5864px;line-height:1.1;font-family:Kiros;-inkscape-font-specification:'Kiros, Normal';letter-spacing:-1.5875px;fill:#1a1a1a;stroke-width:0.845755"
         d="m 37.376792,124.87832 q -0.433895,0.21695 -0.819579,0.32141 -0.385684,0.10445 -0.723158,0.10445 -0.53835,0 -0.940105,-0.24908 -0.249087,-0.15267 -0.425859,-0.36159 -0.168737,-0.20891 -0.289264,-0.44192 -0.112491,-0.23302 -0.176772,-0.458 -0.05624,-0.22499 -0.08838,-0.4098 -0.03214,-0.1848 -0.04017,-0.30533 -0.008,-0.12052 -0.008,-0.13659 v -0.008 -5.53618 h -1.703439 v -0.82761 h 1.703439 v -2.44267 h 0.819578 v 2.44267 h 2.635509 v 0.82761 h -2.635509 v 5.52814 q 0,0.11249 0.03214,0.30533 0.03214,0.19285 0.104456,0.4098 0.07232,0.20891 0.192842,0.40978 0.120526,0.19284 0.305334,0.30534 0.578526,0.33747 1.695403,-0.21695 z"
         id="path9" />
      <path
         style="font-size:30.5864px;line-height:1.1;font-family:Kiros;-inkscape-font-specification:'Kiros, Normal';letter-spacing:-1.5875px;fill:#1a1a1a;stroke-width:0.845755"
         d="m 30.075273,120.93309 q 0.835649,0.69102 0.835649,1.75969 0,0.73923 -0.377649,1.28561 -0.377649,0.54639 -1.092772,0.85172 -0.361578,0.15267 -0.779403,0.22499 -0.417824,0.0803 -0.875824,0.0803 -0.160702,0 -0.329439,-0.008 -0.160702,-0.008 -0.321403,-0.0241 -0.618702,-0.0803 -1.108842,-0.26515 -0.490141,-0.19284 -0.771368,-0.46604 l 0.578526,-0.59459 q 0.176772,0.17677 0.554421,0.31336 0.377649,0.1366 0.835649,0.19285 0.466034,0.0562 0.96421,0.0161 0.50621,-0.0402 0.940105,-0.22499 0.956175,-0.40979 0.956175,-1.38204 0,-0.36157 -0.136596,-0.62673 -0.128562,-0.27319 -0.377649,-0.4821 -0.241052,-0.20892 -0.602632,-0.39373 -0.353544,-0.1848 -0.803508,-0.37764 -0.377649,-0.16874 -0.747263,-0.34551 -0.369614,-0.18481 -0.674948,-0.42586 -0.755298,-0.60264 -0.755298,-1.50256 0,-0.65888 0.305334,-1.17312 0.281228,-0.46604 0.803508,-0.74727 0.393719,-0.21695 0.891895,-0.30533 0.498175,-0.0884 1.052596,-0.0482 0.506211,0.0402 0.972246,0.18481 0.47407,0.14463 0.835649,0.37765 l -0.449965,0.69102 q -0.265158,-0.16874 -0.634772,-0.28123 -0.361579,-0.12053 -0.763333,-0.15267 -0.401755,-0.0321 -0.803509,0.0321 -0.393719,0.0563 -0.707088,0.22498 -0.682982,0.36962 -0.682982,1.19723 0,0.28123 0.112491,0.49014 0.120526,0.20088 0.337474,0.37765 0.216947,0.16874 0.530316,0.32944 0.313368,0.15266 0.707087,0.3214 0.417825,0.18481 0.827614,0.38569 0.417825,0.20087 0.755298,0.49014 z"
         id="path10" />
      <path
         style="font-weight:bold;font-size:medium;line-height:1.1;font-family:Kiros;-inkscape-font-specification:'Kiros, Bold';letter-spacing:-1.5875px;baseline-shift:baseline;display:inline;overflow:visible;fill:#ff6600;fill-opacity:1;stroke:#ff6600;stroke-width:0.146;stroke-dasharray:none;stroke-opacity:1;enable-background:accumulate;stop-color:#000000"
         d="m 78.020782,116.69057 q 0.626736,0.64281 0.626736,1.61505 v 6.54056 h -0.819575 v -0.92403 q -0.458005,0.52228 -1.100811,0.82762 -0.642806,0.30533 -1.398106,0.30533 -0.691017,0 -1.277574,-0.17678 -0.57853,-0.16873 -1.028491,-0.50621 -0.498178,-0.38568 -0.755299,-0.92403 -0.249089,-0.53835 -0.249089,-1.20526 0,-0.63478 0.20891,-1.20526 0.208915,-0.5705 0.610671,-1.01243 0.449961,-0.49817 1.076702,-0.76333 0.626736,-0.27319 1.3981,-0.30533 0.112493,-0.008 0.224986,-0.008 0.120525,0 0.257121,0 0.208911,0 0.425859,0.008 0.216948,0 0.425863,0.008 0.216943,0 0.409788,0.008 0.200878,0 0.385685,0 0.112487,0 0.200877,0 0.09642,0 0.184808,-0.008 v -0.65888 q 0,-1.22133 -1.446317,-1.63112 -0.457999,-0.12855 -0.988318,-0.15266 -0.530313,-0.0241 -1.052594,0.0643 -0.530319,0.0884 -0.80351,0.233 -0.273192,0.1366 -0.329436,0.23302 l -0.707088,-0.4339 q 0.128558,-0.20086 0.337474,-0.3455 0.216948,-0.14463 0.457999,-0.24105 0.241051,-0.10446 0.482102,-0.1607 0.241056,-0.0643 0.425863,-0.0964 0.602628,-0.0964 1.229369,-0.0723 0.626736,0.0241 1.165087,0.18481 0.449961,0.12857 0.803505,0.32945 0.361582,0.19284 0.618703,0.47407 z m -2.691756,7.53692 q 0.514249,0 0.964215,-0.19285 0.457999,-0.20088 0.795473,-0.53835 0.337473,-0.33747 0.538351,-0.78744 0.200878,-0.44996 0.200878,-0.96421 l -0.04821,-1.95252 h -0.337474 q -0.184807,0 -0.393723,0 -0.20891,0 -0.41782,-0.008 -0.208915,-0.008 -0.425863,-0.008 -0.208911,0 -0.409788,0 h -0.449967 q -0.650839,0.0241 -1.124908,0.24909 -0.474069,0.21695 -0.779408,0.56246 -0.305332,0.3455 -0.457999,0.7794 -0.144628,0.4339 -0.144628,0.87582 0,0.54639 0.216948,0.93207 0.224981,0.37766 0.578525,0.61067 0.353544,0.23302 0.795472,0.33747 0.449967,0.10446 0.899928,0.10446 z"
         id="path11" />
    </g>
  </g>
</svg>
